<?xml version="1.0" encoding="UTF-8"?>
<svg id="Layer_1" xmlns="http://www.w3.org/2000/svg" version="1.1" viewBox="0 0 644 644">
  <!-- Generator: Adobe Illustrator 29.8.2, SVG Export Plug-In . SVG Version: 2.1.1 Build 3)  -->
  <defs>
    <style>
      .st0 {
        fill: none;
        stroke: #fff;
        stroke-miterlimit: 10;
        stroke-width: 5px;
      }

      .st1 {
        fill: #000000ff;
      }

      .st2 {
        fill: #3e5e60ff;
      }

      .st3 {
        fill: #f5f6f7;
      }
    </style>
  </defs>
  <g id="Generative_Object">
    <g>
      <path class="st2" d="M435.27,203.76c1.74,4.26,3.58,8.84,5.24,13.11.3.76.47,1.58.87,2.62.36.9.83,1.64.87,1.75.28.7.43,1.51.87,2.62.4,1.06.84,1.66.87,1.75.54,1.44,1.06,3.36,1.75,5.24.4,1.05.84,1.66.87,1.75.31.83.54,1.71.87,2.62.3.83.55,1.73.87,2.62.3.84.56,1.73.87,2.62.44,1.26.84,1.66.87,1.75.29.86.58,1.76.87,2.62.29.86.59,1.77.87,2.62s.6,1.78.87,2.62.6,1.79.87,2.62.61,1.8.87,2.62c.28.87.62,1.81.87,2.62.34,1.1.49,2.24.87,3.5.27.88.63,1.83.87,2.62.34,1.11.5,2.26.87,3.5.27.92.67,1.91.87,2.62.32,1.12.54,2.29.87,3.5.29,1.02.73,2.09.87,2.62.31,1.13.55,2.3.87,3.5.31,1.13.56,2.32.87,3.5.29,1.1.78,2.26.87,2.62.29,1.15.59,2.36.87,3.5.29,1.15.6,2.37.87,3.5s.62,2.4.87,3.5c.27,1.15.63,2.42.87,3.5.26,1.16.64,2.44.87,3.5.25,1.16.66,2.46.87,3.5.25,1.17.67,2.48.87,3.5.24,1.17.68,2.51.87,3.5.28,1.44.61,2.98.87,4.37.27,1.42.64,3.02.87,4.37.29,1.68.62,3.59.87,5.24.27,1.96.65,4.21.87,6.12.24,1.94.71,4.31.87,6.12.33,3.33.68,7.19.87,10.49.5,9.43.44,21.15,0,30.59-.24,3.33-.5,7.18-.87,10.49-.15,1.8-.67,4.15-.87,6.12-.26,1.95-.57,4.16-.87,6.12-.2,1.29-.63,2.95-.87,4.37-.23,1.33-.61,2.97-.87,4.37s-.58,2.98-.87,4.37c-.3,1.44-.56,2.98-.87,4.37s-.53,3.03-.87,4.37c-.39,1.53-.5,3.03-.87,4.37-.14.52-.59,1.64-.87,2.62-.22.75-.61,1.77-.87,2.62-.24.79-.6,1.78-.87,2.62s-.59,1.81-.87,2.62c-.31.88-.57,1.82-.87,2.62-.34.92-.56,1.84-.87,2.62-17.79,45.19-55.91,82.15-99.65,102.27-1.99.84-4.17,1.84-6.12,2.62-.68.27-1.52.44-2.62.87-.78.3-1.63.49-2.62.87-.8.31-1.63.49-2.62.87-.77.3-1.47.41-2.62.87-.65.26-1.45.41-2.62.87-.75.3-1.6.05-3.5.87-.93.28-1.76.59-2.62.87-1.1.36-1.46-.26-3.5.87-.58.33-2.64-.53-3.5,1.31v79.55c-2.17,4.01-9.14,5.15-13.11,3.93-.84-.26-3.27-3-3.5-3.93l-.87-79.11c.46-2.75-1.81-1.32-2.62-1.75-2.04-1.07-2.55-.53-3.5-.87-1.69-.62-2.69-.58-3.5-.87-1.7-.61-2.62-.57-3.5-.87s-1.74-.58-2.62-.87-1.81-.58-2.62-.87c-.89-.32-1.82-.57-2.62-.87-.97-.37-1.86-.57-2.62-.87-1.11-.44-1.94-.6-2.62-.87-.14-.05-.88-.52-1.75-.87-1.4-.58-3.04-1.17-4.37-1.75-41.83-18.72-78.4-55.12-97.03-97.03-.88-2.05-1.8-4.82-2.62-6.99-.39-1.02-.84-1.66-.87-1.75-.29-.8-.58-1.77-.87-2.62s-.63-1.83-.87-2.62c-.27-.87-.63-1.83-.87-2.62-.27-.87-.68-1.93-.87-2.62-.31-1.07-.59-2.37-.87-3.5-.35-1.37-.52-2.87-.87-4.37-.32-1.36-.57-2.95-.87-4.37s-.61-2.99-.87-4.37c-.32-1.66-.59-3.56-.87-5.24-.22-1.43-.7-3.12-.87-4.37-.27-1.96-.65-4.22-.87-6.12-.23-1.95-.71-4.31-.87-6.12-.27-2.82-.67-5.98-.87-8.74-.64-11.58-.66-26.89,0-38.46.18-2.73.61-5.93.87-8.74.17-1.82.64-4.17.87-6.12.22-1.9.6-4.15.87-6.12.24-1.65.6-3.55.87-5.24.22-1.33.62-2.94.87-4.37.24-1.35.6-2.96.87-4.37s.59-2.94.87-4.37c.2-1.01.63-2.34.87-3.5.22-1.04.62-2.35.87-3.5.24-1.07.6-2.35.87-3.5s.59-2.35.87-3.5c.07-.29.59-1.5.87-2.62.28-1.14.58-2.36.87-3.5s.57-2.36.87-3.5c.11-.43.59-1.57.87-2.62.32-1.18.56-2.37.87-3.5.14-.52.58-1.6.87-2.62.35-1.21.55-2.38.87-3.5.22-.76.61-1.74.87-2.62.24-.79.6-1.74.87-2.62.37-1.25.54-2.4.87-3.5.25-.8.6-1.74.87-2.62.25-.81.6-1.75.87-2.62.26-.82.59-1.75.87-2.62s.59-1.76.87-2.62.59-1.76.87-2.62.58-1.77.87-2.62.58-1.77.87-2.62.58-1.77.87-2.62.57-1.78.87-2.62c.03-.09.45-.58.87-1.75.62-1.73,1.14-3.58,1.75-5.24.03-.09.46-.64.87-1.75.35-.93.56-1.8.87-2.62.36-.94.56-1.8.87-2.62.04-.09.49-.76.87-1.75.54-1.4,1.18-2.91,1.75-4.37.44-1.12.59-1.92.87-2.62.57-1.43,1.17-2.95,1.75-4.37,1.14-2.85,2.33-5.91,3.5-8.74.07-.18.52-.89.87-1.75,1.71-4.01,3.48-8.27,5.24-12.24.87-2.01,1.75-4.13,2.62-6.12,28.78-63.63,63.42-125.38,104.46-181.82,44.64,63.14,82.71,131.62,113.2,202.8Z"/>
      <g>
        <path class="st3" d="M276.18,257.08c.98.18,3.73.66,4.37.87.78.26,1.96.6,2.62.87.51.21,8.5,5.52,9.18,6.12,2.25,1.99,8.06,11.13,8.74,11.36,1.94.68,39.14.68,41.08,0,1.2-.42,9.44-14.3,17.92-17.48.51-.19,2.23-.77,2.62-.87.59-.16,3.9-.82,4.37-.87,2.49-.3,8-.31,10.49,0,.51.06,3.77.71,4.37.87.38.1,2.19.7,2.62.87,6.23,2.44,15.7,13.18,18.36,19.23.47,1.58.85,1.65.87,1.75.21.95.85,3.32.87,3.5.33,2.75.42,10.5,0,13.11-.05.33-.69,2.82-.87,3.5-1.89,6.82-13.3,18.5-20.1,20.98-.54.2-2.29.79-2.62.87-.59.15-4,.83-4.37.87-2.26.25-6.48.25-8.74,0-.4-.04-3.73-.71-4.37-.87-.3-.08-2.05-.67-2.62-.87-7.34-2.6-17.11-12.96-20.1-20.1-.18-.43-.46-2.17-.87-3.5-.46-1.46-.41-3.43-.87-5.24-.25-1.65.17-3.56,0-5.24-.04-1.05,1.27.47,0-.87-.18-.19.56-2.12-1.31-1.75h-33.22c-1.12.8-.04,8.57-.44,10.49-.19.92-.6,2.56-.87,3.5-.2.69-.61,1.91-.87,2.62-2.52,6.94-13.17,17.58-20.1,20.1-.55.2-2.28.79-2.62.87-.59.15-3.99.83-4.37.87-2.26.25-6.48.25-8.74,0-.38-.04-3.78-.72-4.37-.87-.34-.09-2.08-.68-2.62-.87-5.67-2.07-16.97-12.69-19.23-18.36-.14-.36-.8-2.35-.87-2.62-.18-.7-.85-3.32-.87-3.5-.39-2.82-.35-10.24,0-13.11.02-.18.67-2.57.87-3.5.02-.1.4-.19.87-1.75,3.43-7.74,11.61-15.91,19.23-19.23,1.59-.47,1.65-.85,1.75-.87.98-.21,3.72-.8,4.37-.87,2.71-.33,7.69-.23,10.49,0Z"/>
        <path class="st1" d="M275.3,274.57c3.95.91,10.55,8.28,11.36,12.24.24,1.17.19,4.85,0,6.12-.02.14-.71,2.19-.87,2.62-1.16,3.05-7.51,8.92-10.49,9.62-1,.23-7.79.24-8.74,0-2.06-.52-9.67-7.69-10.49-9.62-.07-.17-.85-3.32-.87-3.5-.16-1.12-.15-3.24,0-4.37.02-.18.81-3.32.87-3.5,1.04-2.78,7.69-8.97,10.49-9.62,1.06-.25,7.68-.24,8.74,0Z"/>
        <path class="st1" d="M376.7,274.57c2.77.65,9.49,6.86,10.49,9.62.08.21.86,4.15.87,4.37.07.83.08,1.79,0,2.62-.02.22-.79,4.16-.87,4.37-.82,2.1-8.22,9.08-10.49,9.62-1.03.24-7.7.24-8.74,0-2.83-.66-9.4-6.82-10.49-9.62-.16-.41-.85-2.49-.87-2.62-.2-1.25-.23-4.94,0-6.12.68-3.47,7.09-11.32,10.49-12.24.89-.24,8.63-.23,9.62,0Z"/>
      </g>
      <g>
        <path class="st3" d="M254.32,347.99c1.27.33,2.05.67,3.5.87,4.59,1.24,6.09.49,10.49,0,1.68-.19,2.92-.78,3.5-.87,1.3-.3,2.14-.74,2.62-.87,1.1-.3,2.04-.71,2.62-.87,1.02-.29,2.07-.72,2.62-.87,1.82-.45,1.65-.85,1.75-.87,1.16-.28,2.32-.8,2.62-.87,1.13-.28,2.39-.82,2.62-.87,1.18-.28,2.4-.82,2.62-.87,1.18-.28,2.36-.6,3.5-.87,1.12-.27,2.43-.83,2.62-.87,1.35-.31,2.98-.59,4.37-.87,1.21-.24,2.99-.79,3.5-.87,1.61-.26,3.72-.69,5.24-.87,2.57-.32,6.24-.77,8.74-.87,3.37-.14,7.13-.2,10.49,0,2.2.09,5.54.6,7.87.87,1.54.2,3.64.59,5.24.87.61.11,2.3.63,3.5.87,1.02.21,2.37.62,3.5.87,1.07.24,2.37.6,3.5.87.3.07,1.41.59,2.62.87.21.05,1.46.6,2.62.87.25.06,1.5.6,2.62.87.32.08,1.46.59,2.62.87.29.07,1.44.59,2.62.87.26.06,1.37.59,2.62.87.1.02-.25.47,1.75.87.46.13,1.38.58,2.62.87.47.07,1.73.72,3.5.87,4.75.8,6.48,1.33,11.36,0,1.17-.32,1.49-.41,2.62-.87,7.86-1.93,12.42-7.72,15.73-14.86h.87c-.83,1.71.85,3.32.87,3.5.35,2.5.76,6.27.87,8.74.03,1.73.08,3.52,0,5.24-.03,3.01-.6,7.33-.87,10.49-.21,1.85-.59,4.22-.87,6.12-.19,1.28-.63,2.96-.87,4.37-.23,1.33-.6,2.98-.87,4.37-.19.99-.63,2.36-.87,3.5-.22,1.04-.61,2.36-.87,3.5s-.6,2.36-.87,3.5-.58,2.38-.87,3.5c-.3,1.14-.57,2.4-.87,3.5-.15.52-.59,1.65-.87,2.62-.22.76-.61,1.76-.87,2.62-.24.79-.6,1.76-.87,2.62-.26.81-.59,1.78-.87,2.62-.28.84-.58,1.79-.87,2.62s-.58,1.8-.87,2.62c-.33.9-.57,1.81-.87,2.62-.03.09-.49.75-.87,1.75-16.21,36.89-41.27,70.25-71.24,97.03-28.87-28.16-55.24-60.51-71.24-97.9-.55-1.36-1.25-3.04-1.75-4.37-.3-.8-.57-1.75-.87-2.62-.39-1.02-.84-1.66-.87-1.75-.3-.8-.57-1.75-.87-2.62-.29-.82-.61-1.8-.87-2.62-.34-1.06-.5-2.26-.87-3.5-.28-1-.76-2.2-.87-2.62-.3-1.12-.59-2.37-.87-3.5-.27-1.06-.84-2.49-.87-2.62-.31-1.39-.58-2.95-.87-4.37-.25-1.22-.77-2.9-.87-3.5-.29-1.68-.62-3.59-.87-5.24-.22-1.65-.72-3.76-.87-5.24-.31-2.45-.68-5.45-.87-7.87-.37-6.28-.53-15.67,0-21.85.31-1.77.58-3.47.87-5.24,0-.06,1.03.14.87-.87.25.09.66-.12.87,0,1.16,7.31,7.81,13.92,14.86,15.73Z"/>
        <path class="st1" d="M349.6,360.23c.06,5.41-12.5,16.08-17.48,17.48-.67.19-3.12.81-3.5.87-2.34.39-11.65.39-13.99,0-.36-.06-2.89-.7-3.5-.87-4.46-1.3-16.43-11.69-16.61-16.61-.03-.84-.31-3.07.44-3.5h54.2c.73.33.43,1.77.44,2.62Z"/>
      </g>
    </g>
    <line class="st0" x1="322.07" y1=".96" x2="322.07" y2="274.39"/>
    <line class="st0" x1="235.08" y1="153.31" x2="321.31" y2="246.42"/>
    <line class="st0" x1="385.1" y1="98.32" x2="322.32" y2="156.46"/>
  </g>
</svg>